<?xml version="1.0" encoding="UTF-8" standalone="no"?>
<!DOCTYPE svg PUBLIC "-//W3C//DTD SVG 1.1//EN" "http://www.w3.org/Graphics/SVG/1.1/DTD/svg11.dtd">
<svg version="1.1" xmlns="http://www.w3.org/2000/svg" xmlns:xlink="http://www.w3.org/1999/xlink" preserveAspectRatio="xMidYMid meet" viewBox="146.73267326732673 96.1386017752167 352.4752475247524 302.17822990795173" width="352.48" height="302.18"><defs><path d="M489.21 140.59C494.73 140.59 499.21 145.07 499.21 150.59C499.21 174.93 499.21 237.94 499.21 262.28C499.21 267.8 494.73 272.28 489.21 272.28C420.71 272.28 225.23 272.28 156.73 272.28C151.21 272.28 146.73 267.8 146.73 262.28C146.73 237.94 146.73 174.93 146.73 150.59C146.73 145.07 151.21 140.59 156.73 140.59C225.23 140.59 420.71 140.59 489.21 140.59Z" id="bOjK8OeE5"></path><path d="M394.7 96.14C395.82 96.14 396.73 97.05 396.73 98.17C396.73 103.11 396.73 115.9 396.73 120.84C396.73 121.96 395.82 122.87 394.7 122.87C365.6 122.87 280.34 122.87 251.24 122.87C250.12 122.87 249.21 121.96 249.21 120.84C249.21 115.9 249.21 103.11 249.21 98.17C249.21 97.05 250.12 96.14 251.24 96.14C280.34 96.14 365.6 96.14 394.7 96.14Z" id="b49lKCYksj"></path><path d="M395.68 288.32C396.26 288.32 396.73 288.79 396.73 289.37C396.73 291.93 396.73 298.56 396.73 301.13C396.73 301.71 396.26 302.18 395.68 302.18C366.39 302.18 279.55 302.18 250.26 302.18C249.68 302.18 249.21 301.71 249.21 301.13C249.21 298.56 249.21 291.93 249.21 289.37C249.21 288.79 249.68 288.32 250.26 288.32C279.55 288.32 366.39 288.32 395.68 288.32Z" id="c96BX7crPD"></path><path d="M381.77 320C382.11 320 382.38 320.27 382.38 320.6C382.38 322.07 382.38 325.86 382.38 327.32C382.38 327.65 382.11 327.92 381.77 327.92C358.13 327.92 287.81 327.92 264.17 327.92C263.83 327.92 263.56 327.65 263.56 327.32C263.56 325.86 263.56 322.07 263.56 320.6C263.56 320.27 263.83 320 264.17 320C287.81 320 358.13 320 381.77 320Z" id="b6R7zcVSy"></path><path d="M436.73 367.62C437.06 367.62 437.33 367.89 437.33 368.23C437.33 369.69 437.33 373.48 437.33 374.94C437.33 375.28 437.06 375.54 436.73 375.54C391.1 375.54 254.84 375.54 209.22 375.54C208.88 375.54 208.61 375.28 208.61 374.94C208.61 373.48 208.61 369.69 208.61 368.23C208.61 367.89 208.88 367.62 209.22 367.62C254.84 367.62 391.1 367.62 436.73 367.62Z" id="ec8itQVF"></path><path d="M473.31 351.88C473.64 351.88 473.91 352.15 473.91 352.48C473.91 353.95 473.91 357.74 473.91 359.2C473.91 359.53 473.64 359.8 473.31 359.8C413.05 359.8 232.89 359.8 172.63 359.8C172.3 359.8 172.03 359.53 172.03 359.2C172.03 357.74 172.03 353.95 172.03 352.48C172.03 352.15 172.3 351.88 172.63 351.88C232.89 351.88 413.05 351.88 473.31 351.88Z" id="a3DVpYE8lt"></path><path d="M436.73 346.93C437.06 346.93 437.33 347.2 437.33 347.53C437.33 349 437.33 352.79 437.33 354.25C437.33 354.58 437.06 354.85 436.73 354.85C391.1 354.85 254.84 354.85 209.22 354.85C208.88 354.85 208.61 354.58 208.61 354.25C208.61 352.79 208.61 349 208.61 347.53C208.61 347.2 208.88 346.93 209.22 346.93C254.84 346.93 391.1 346.93 436.73 346.93Z" id="cUOzjKlPK"></path><path d="M381.77 390.4C382.11 390.4 382.38 390.67 382.38 391C382.38 392.46 382.38 396.25 382.38 397.72C382.38 398.05 382.11 398.32 381.77 398.32C358.13 398.32 287.81 398.32 264.17 398.32C263.83 398.32 263.56 398.05 263.56 397.72C263.56 396.25 263.56 392.46 263.56 391C263.56 390.67 263.83 390.4 264.17 390.4C287.81 390.4 358.13 390.4 381.77 390.4Z" id="b1S5ju0Bnq"></path></defs><g><g><g><use xlink:href="#bOjK8OeE5" opacity="1" fill="#fff" fill-opacity="1"></use></g><g><use xlink:href="#b49lKCYksj" opacity="1" fill="#fff" fill-opacity="1"></use></g><g><use xlink:href="#c96BX7crPD" opacity="1" fill="#fff" fill-opacity="1"></use></g><g><use xlink:href="#b6R7zcVSy" opacity="1" fill="#fff" fill-opacity="1"></use></g><g><use xlink:href="#ec8itQVF" opacity="1" fill="#fff" fill-opacity="1"></use></g><g><use xlink:href="#a3DVpYE8lt" opacity="1" fill="#fff" fill-opacity="1"></use></g><g><use xlink:href="#cUOzjKlPK" opacity="1" fill="#fff" fill-opacity="1"></use></g><g><use xlink:href="#b1S5ju0Bnq" opacity="1" fill="#fff" fill-opacity="1"></use></g></g></g></svg>